<svg xmlns="http://www.w3.org/2000/svg" class="pid" viewBox="0 0 1120 640" role="img" aria-labelledby="c3g-t c3g-d"><title id="c3g-t">Typical seal-gas system P&amp;ID (illustrative)</title><style>.pid{display:block;width:100%;height:auto;background:#071018}
.pid .fr{fill:none;stroke:#2A3D4D;stroke-width:1}.pid .zn{fill:#64748B;font:400 9px "IBM Plex Mono",ui-monospace,monospace;text-anchor:middle}
.pid .eq{fill:#0B1118;stroke:#CBD5E1;stroke-width:1.3}.pid .eq.hi{stroke:#22D3EE}.pid .eq.ex{stroke:#A5B4FC}
.pid .ln{fill:none;stroke:#E2E8F0;stroke-width:1.1}.pid .tap{fill:none;stroke:#64748B;stroke-width:1;stroke-dasharray:3 2}
.pid .vv{fill:#071018;stroke:#E2E8F0;stroke-width:1.1}.pid .ib{fill:#071018;stroke:#38BDF8;stroke-width:1.1}
.pid .pl{fill:none;stroke:#22D3EE;stroke-width:2.2}.pid .pl2{fill:none;stroke:#A5B4FC;stroke-width:2;stroke-dasharray:8 4}
.pid .rc{fill:none;stroke:#22D3EE;stroke-width:1.3;stroke-dasharray:2 4;opacity:.8}
.pid .cw{fill:none;stroke:#34D399;stroke-width:2}.pid .cwr{fill:none;stroke:#34D399;stroke-width:2;stroke-dasharray:9 5}.pid .cwb{fill:none;stroke:#34D399;stroke-width:1.4}
.pid .lo{fill:none;stroke:#F59E0B;stroke-width:1.6;stroke-dasharray:6 3}
.pid .sh{stroke:#94A3B8;stroke-width:4}.pid .shd{stroke:#94A3B8;stroke-width:3;stroke-dasharray:4 3}
.pid .tg{fill:#F1F5F9;font:500 11px "IBM Plex Mono",ui-monospace,monospace;text-anchor:middle}.pid .tgs{fill:#CBD5E1;font:400 9.5px "IBM Plex Mono",ui-monospace,monospace;text-anchor:middle}
.pid .it{fill:#F1F5F9;font:500 8px "IBM Plex Mono",ui-monospace,monospace;text-anchor:middle}
.pid .lb{fill:#CBD5E1;font:500 10.5px "IBM Plex Mono",ui-monospace,monospace}.pid .lb.hi{fill:#22D3EE}.pid .lbs{fill:#94A3B8;font:400 9.5px "IBM Plex Mono",ui-monospace,monospace}.pid .cwt{fill:#34D399}
.pid .ttl{fill:#F1F5F9;font:600 13px "IBM Plex Sans",system-ui,sans-serif}
.pid .zl{fill:#64748B;font:400 9px "IBM Plex Mono",ui-monospace,monospace}.pid .tgl{fill:#22D3EE;font:500 10px "IBM Plex Mono",ui-monospace,monospace}
.pid .sg{fill:none;stroke:#A5B4FC;stroke-width:1.8}.pid .sgt{fill:#A5B4FC}.pid .lor{fill:none;stroke:#F59E0B;stroke-width:1.3;stroke-dasharray:3 4}
.pid .encl{fill:none;stroke:#64748B;stroke-width:1;stroke-dasharray:10 4 2 4}
.pid .vt{fill:none;stroke:#94A3B8;stroke-width:1.4;stroke-dasharray:7 4}
</style><desc id="c3g-d">Process gas taken from compressor discharge, with nitrogen from the customer as backup seal gas at standstill, passes a dual 5-micron filter assembly with differential pressure indication and a pressure control valve to a seal-gas header. The header feeds the dry gas seals of all four stages through orifices with flow transmitters. Primary seal vents from each stage pass orifices and pressure indicators to a common vent to safe area or flare. Nitrogen separation gas at 4 to 6 barg passes a dual filter and pressure control valve to the separation seals.</desc><defs><marker id="c3ga" viewBox="0 0 10 10" refX="9" refY="5" markerWidth="7" markerHeight="7" orient="auto"><path d="M0 0L10 5L0 10z" fill="#22D3EE"/></marker><marker id="c3gb" viewBox="0 0 10 10" refX="9" refY="5" markerWidth="7" markerHeight="7" orient="auto"><path d="M0 0L10 5L0 10z" fill="#A5B4FC"/></marker><marker id="c3go" viewBox="0 0 10 10" refX="9" refY="5" markerWidth="7" markerHeight="7" orient="auto"><path d="M0 0L10 5L0 10z" fill="#F59E0B"/></marker><marker id="c3gg" viewBox="0 0 10 10" refX="9" refY="5" markerWidth="7" markerHeight="7" orient="auto"><path d="M0 0L10 5L0 10z" fill="#94A3B8"/></marker></defs><rect x="6" y="6" width="1108" height="628" class="fr"/><rect x="20" y="20" width="1080" height="600" class="fr"/><text x="110" y="16" class="zn">1</text><text x="290" y="16" class="zn">2</text><text x="470" y="16" class="zn">3</text><text x="650" y="16" class="zn">4</text><text x="830" y="16" class="zn">5</text><text x="1010" y="16" class="zn">6</text><text x="11" y="95" class="zn">A</text><text x="11" y="245" class="zn">B</text><text x="11" y="395" class="zn">C</text><text x="11" y="545" class="zn">D</text><text x="34" y="120" class="lb hi">PROCESS SEAL GAS</text><text x="34" y="136" class="lbs">from compressor discharge</text><path d="M30 150H250" class="pl"/><path d="M63 145L77 155V145L63 155Z" class="vv"/><text x="34" y="206" class="lb sgt">BACKUP N₂ · STANDSTILL</text><text x="34" y="222" class="lbs">nitrogen from customer</text><path d="M30 240H230V150" class="sg"/><path d="M114 234V246L126 240Z" class="vv"/><path d="M126 234V246" class="ln"/><path d="M163 235L177 245V235L163 245Z" class="vv"/><path d="M250 150H270M270 120V180M270 120H290M270 180H290M314 120H330M314 180H330M330 120V180M330 150H380" class="pl"/><path d="M302 108L314 120L302 132L290 120Z" class="eq"/><path d="M302 108V132" class="tap"/><path d="M302 168L314 180L302 192L290 180Z" class="eq"/><path d="M302 168V192" class="tap"/><text x="302" y="208" class="tgs">dual filter · 5 µm</text><path d="M302 108L302 74" class="tap"/><circle cx="302" cy="74" r="14" class="ib"/><path d="M288 74h28" class="ln"/><text x="302" y="71" class="it">PDI</text><text x="302" y="84" class="it">401</text><path d="M403 145L417 155V145L403 155Z" class="vv"/><path d="M410 150V138M403 138a7 7 0 0 1 14 0Z" class="ln"/><text x="410" y="126" class="tgs">PCV-401</text><path d="M380 150H530" class="pl"/><path d="M470 150L470 94" class="tap"/><circle cx="470" cy="94" r="14" class="ib"/><path d="M456 94h28" class="ln"/><text x="470" y="91" class="it">PT</text><text x="470" y="104" class="it">402</text><path d="M530 150V400" class="pl"/><path d="M530 190H640" class="pl" marker-end="url(#c3ga)"/><path d="M567 182V198M573 182V198" class="ln"/><path d="M600 190L600 164" class="tap"/><circle cx="600" cy="164" r="14" class="ib"/><path d="M586 164h28" class="ln"/><text x="600" y="161" class="it">FT</text><text x="600" y="174" class="it">410</text><rect x="650" y="168" width="120" height="44" class="eq hi"/><text x="710" y="186" class="tg">STAGE 1</text><text x="710" y="202" class="tgs">dry gas seal</text><path d="M770 190H900" class="vt"/><path d="M817 182V198M823 182V198" class="ln"/><path d="M860 190L860 164" class="tap"/><circle cx="860" cy="164" r="14" class="ib"/><path d="M846 164h28" class="ln"/><text x="860" y="161" class="it">PI</text><text x="860" y="174" class="it">415</text><path d="M530 256H640" class="pl" marker-end="url(#c3ga)"/><path d="M567 248V264M573 248V264" class="ln"/><path d="M600 256L600 230" class="tap"/><circle cx="600" cy="230" r="14" class="ib"/><path d="M586 230h28" class="ln"/><text x="600" y="227" class="it">FT</text><text x="600" y="240" class="it">420</text><rect x="650" y="234" width="120" height="44" class="eq hi"/><text x="710" y="252" class="tg">STAGE 2</text><text x="710" y="268" class="tgs">dry gas seal</text><path d="M770 256H900" class="vt"/><path d="M817 248V264M823 248V264" class="ln"/><path d="M860 256L860 230" class="tap"/><circle cx="860" cy="230" r="14" class="ib"/><path d="M846 230h28" class="ln"/><text x="860" y="227" class="it">PI</text><text x="860" y="240" class="it">425</text><path d="M530 322H640" class="pl" marker-end="url(#c3ga)"/><path d="M567 314V330M573 314V330" class="ln"/><path d="M600 322L600 296" class="tap"/><circle cx="600" cy="296" r="14" class="ib"/><path d="M586 296h28" class="ln"/><text x="600" y="293" class="it">FT</text><text x="600" y="306" class="it">430</text><rect x="650" y="300" width="120" height="44" class="eq hi"/><text x="710" y="318" class="tg">STAGE 3</text><text x="710" y="334" class="tgs">dry gas seal</text><path d="M770 322H900" class="vt"/><path d="M817 314V330M823 314V330" class="ln"/><path d="M860 322L860 296" class="tap"/><circle cx="860" cy="296" r="14" class="ib"/><path d="M846 296h28" class="ln"/><text x="860" y="293" class="it">PI</text><text x="860" y="306" class="it">435</text><path d="M530 388H640" class="pl" marker-end="url(#c3ga)"/><path d="M567 380V396M573 380V396" class="ln"/><path d="M600 388L600 362" class="tap"/><circle cx="600" cy="362" r="14" class="ib"/><path d="M586 362h28" class="ln"/><text x="600" y="359" class="it">FT</text><text x="600" y="372" class="it">440</text><rect x="650" y="366" width="120" height="44" class="eq hi"/><text x="710" y="384" class="tg">STAGE 4</text><text x="710" y="400" class="tgs">dry gas seal</text><path d="M770 388H900" class="vt"/><path d="M817 380V396M823 380V396" class="ln"/><path d="M860 388L860 362" class="tap"/><circle cx="860" cy="362" r="14" class="ib"/><path d="M846 362h28" class="ln"/><text x="860" y="359" class="it">PI</text><text x="860" y="372" class="it">445</text><path d="M900 190V450" class="vt"/><path d="M900 450H1088" class="vt" marker-end="url(#c3gg)"/><text x="1084" y="440" class="lbs" text-anchor="end">seal vents → safe area / flare</text><text x="910" y="180" class="lbs">primary vents · PAH</text><text x="34" y="438" class="lb sgt">N₂ SEPARATION GAS</text><text x="34" y="452" class="lbs">4–6 barg</text><path d="M30 460H640" class="sg" marker-end="url(#c3gb)"/><path d="M180 460H200M200 436V484M200 436H218M200 484H218M242 436H258M242 484H258M258 436V484M258 460H300" class="sg"/><path d="M230 424L242 436L230 448L218 436Z" class="eq"/><path d="M230 424V448" class="tap"/><path d="M230 472L242 484L230 496L218 484Z" class="eq"/><path d="M230 472V496" class="tap"/><text x="230" y="508" class="tgs">dual filter</text><path d="M333 455L347 465V455L333 465Z" class="vv"/><path d="M340 460V448M333 448a7 7 0 0 1 14 0Z" class="ln"/><text x="340" y="484" class="tgs">PCV-402</text><path d="M400 460L400 426" class="tap"/><circle cx="400" cy="426" r="14" class="ib"/><path d="M386 426h28" class="ln"/><text x="400" y="423" class="it">FT</text><text x="400" y="436" class="it">403</text><text x="650" y="464" class="lbs">to separation seals (all stages)</text><rect x="30" y="536" width="600" height="84" class="fr"/><text x="40" y="552" class="lbs">LEGEND</text><path d="M40 574h30" class="pl"/><text x="78" y="578" class="lbs">Process seal gas</text><path d="M235 574h30" class="sg"/><text x="273" y="578" class="lbs">N₂ (backup / separation)</text><path d="M430 574h30" class="vt"/><text x="468" y="578" class="lbs">Seal vent</text><rect x="700" y="536" width="390" height="84" class="fr"/><path d="M700 586h390M797 586v34M895 586v34M992 586v34" class="fr"/><text x="710" y="556" class="ttl">4-stage NG compressor — seal-gas P&amp;ID</text><text x="710" y="574" class="lbs">Illustrative · own tags · not a project drawing</text><text x="708" y="600" class="zl">DRAWN</text><text x="708" y="614" class="tgl">DD</text><text x="805" y="600" class="zl">SCALE</text><text x="805" y="614" class="tgl">NTS</text><text x="902" y="600" class="zl">SHEET</text><text x="902" y="614" class="tgl">3/3</text><text x="999" y="600" class="zl">REV</text><text x="999" y="614" class="tgl">0</text></svg>